<svg xmlns="http://www.w3.org/2000/svg" width="22" height="24" viewBox="0 0 22 24">
  <g id="ベクトルスマートオブジェクト" transform="translate(-1.031 0)">
    <g id="Group_2" data-name="Group 2">
      <g id="Group_1" data-name="Group 1">
        <path id="Path_1" data-name="Path 1" d="M5.511,4.759a9.611,9.611,0,0,1,12.47-.328l-2.855.108a.662.662,0,0,0,.025,1.323h.025L19.558,5.7a.661.661,0,0,0,.639-.662V4.96h0L20.035.638a.664.664,0,0,0-1.327.049l.1,2.71A10.9,10.9,0,0,0,1.339,14.419a.66.66,0,0,0,.644.5.576.576,0,0,0,.157-.02.662.662,0,0,0,.486-.8A9.547,9.547,0,0,1,5.511,4.759Z"/>
        <path id="Path_2" data-name="Path 2" d="M22.723,9.582a.662.662,0,0,0-1.287.314A9.585,9.585,0,0,1,6,19.506l2.889-.26a.662.662,0,1,0-.123-1.318L4.4,18.32a.661.661,0,0,0-.6.72L4.194,23.4a.662.662,0,0,0,.658.6.24.24,0,0,0,.059,0,.661.661,0,0,0,.6-.72l-.236-2.651a10.853,10.853,0,0,0,6.3,2.4c.187.01.373.015.555.015A10.893,10.893,0,0,0,22.723,9.582Z"/>
      </g>
    </g>
  </g>
</svg>
